<svg width="34" height="34" viewBox="0 0 34 34" fill="none" xmlns="http://www.w3.org/2000/svg">
<path d="M8.2714 32.9998C9.87805 32.9998 11.1805 31.6974 11.1805 30.0907C11.1805 28.4841 9.87805 27.1816 8.2714 27.1816C6.66475 27.1816 5.3623 28.4841 5.3623 30.0907C5.3623 31.6974 6.66475 32.9998 8.2714 32.9998Z" stroke="#208C38" stroke-width="2" stroke-miterlimit="10" stroke-linecap="round" stroke-linejoin="round"/>
<path d="M28.6347 32.9998C30.2413 32.9998 31.5438 31.6974 31.5438 30.0907C31.5438 28.4841 30.2413 27.1816 28.6347 27.1816C27.028 27.1816 25.7256 28.4841 25.7256 30.0907C25.7256 31.6974 27.028 32.9998 28.6347 32.9998Z" stroke="#208C38" stroke-width="2" stroke-miterlimit="10" stroke-linecap="round" stroke-linejoin="round"/>
<path d="M28.6348 27.1818H8.27112C8.27112 27.1818 5.36202 1 5.36364 1H1" stroke="#208C38" stroke-width="2" stroke-miterlimit="10" stroke-linecap="round" stroke-linejoin="round"/>
<path d="M6.0083 6.81836L32.9966 9.72745L31.7037 21.3638H7.62446" stroke="#208C38" stroke-width="2" stroke-miterlimit="10" stroke-linecap="round" stroke-linejoin="round"/>
</svg>
