<svg width="66" height="105" viewBox="0 0 66 105" fill="none" xmlns="http://www.w3.org/2000/svg">
<path d="M65.9999 33.1087C65.9999 39.5955 63.6456 45.3659 60.9243 50.7547C58.5604 55.4359 32.958 98 32.958 98V49.6383H32.9999C42.0854 49.6383 49.4771 42.2232 49.4771 33.1079C49.4771 23.9934 42.0854 16.5776 32.9999 16.5776C32.986 16.5776 32.972 16.5783 32.958 16.5783V0C33.086 0 33.214 0.000737896 33.3419 0.00147579C51.4093 0.185212 65.9999 14.9372 65.9999 33.1087Z" fill="url(#paint0_linear_251_21)"/>
<path d="M16.5228 33.1079C16.5228 42.2091 23.8924 49.6154 32.9581 49.6383V98C32.9581 98 6.94674 54.6279 4.99107 50.6241C2.35874 45.2316 -0.00880129 39.5121 2.45982e-05 33.0637C0.0235603 14.8834 14.8827 0.0258264 32.9581 0V16.5783C23.8924 16.6005 16.5228 24.0075 16.5228 33.1079Z" fill="url(#paint1_linear_251_21)"/>
<path d="M32.9997 11.4126C32.9658 11.4126 32.932 11.4126 32.8982 11.4133C21.0259 11.4687 11.374 21.1905 11.374 33.1082C11.374 45.0415 21.0509 54.7736 32.9445 54.8039H32.9997C44.9242 54.8039 54.6253 45.071 54.6253 33.1082C54.6253 21.1454 44.9242 11.4126 32.9997 11.4126ZM32.9997 49.6386H32.9577C23.8921 49.6157 16.5225 42.2094 16.5225 33.1082C16.5225 24.0077 23.8921 16.6007 32.9577 16.5786C32.9717 16.5786 32.9857 16.5779 32.9997 16.5779C42.0852 16.5779 49.4769 23.9937 49.4769 33.1082C49.4769 42.2235 42.0852 49.6386 32.9997 49.6386Z" fill="url(#paint2_linear_251_21)"/>
<path fill-rule="evenodd" clip-rule="evenodd" d="M27.5714 92.1997C18.0603 92.9166 11 95.4712 11 98.499C11 102.074 20.8444 104.99 32.9439 104.999H33C45.1309 104.999 55 102.083 55 98.499C55 95.4683 47.9431 92.9153 38.429 92.1992L37.3461 93.7153C44.4889 94.2823 49.7624 96.2122 49.7624 98.499C49.7624 101.23 42.2428 103.451 33 103.451H32.9573C23.7348 103.445 16.2376 101.226 16.2376 98.499C16.2376 96.2122 21.5115 94.2823 28.654 93.7154L27.5714 92.1997Z" fill="url(#paint3_linear_251_21)"/>
<defs>
<linearGradient id="paint0_linear_251_21" x1="46.971" y1="98" x2="46.971" y2="7.37635" gradientUnits="userSpaceOnUse">
<stop stop-color="#19A5B6"/>
<stop offset="1" stop-color="#208C38"/>
</linearGradient>
<linearGradient id="paint1_linear_251_21" x1="13.9774" y1="98" x2="13.9774" y2="7.37635" gradientUnits="userSpaceOnUse">
<stop stop-color="#19A5B6"/>
<stop offset="1" stop-color="#208C38"/>
</linearGradient>
<linearGradient id="paint2_linear_251_21" x1="29.7167" y1="54.8039" x2="29.7167" y2="14.6786" gradientUnits="userSpaceOnUse">
<stop stop-color="#19A5B6"/>
<stop offset="1" stop-color="#208C38"/>
</linearGradient>
<linearGradient id="paint3_linear_251_21" x1="29.6602" y1="104.999" x2="29.6602" y2="93.4998" gradientUnits="userSpaceOnUse">
<stop stop-color="#19A5B6"/>
<stop offset="1" stop-color="#208C38"/>
</linearGradient>
</defs>
</svg>
